<?xml version="1.0" standalone="no"?>
<!DOCTYPE svg PUBLIC "-//W3C//DTD SVG 20010904//EN"
 "http://www.w3.org/TR/2001/REC-SVG-20010904/DTD/svg10.dtd">
<svg version="1.0" xmlns="http://www.w3.org/2000/svg"
 width="500.000000pt" height="500.000000pt" viewBox="0 0 500.000000 500.000000"
 preserveAspectRatio="xMidYMid meet">
<metadata>
Created by potrace 1.16, written by Peter Selinger 2001-2019
</metadata>
<g transform="translate(0.000000,500.000000) scale(0.100000,-0.100000)"
fill="#000000" stroke="none">
<path d="M0 2500 l0 -2500 2500 0 2500 0 0 2500 0 2500 -2500 0 -2500 0 0
-2500z m3301 1227 c20 -15 49 -71 49 -94 0 -33 -37 -74 -87 -98 -28 -13 -54
-28 -58 -35 -6 -10 -87 -50 -101 -50 -7 0 -4 30 4 31 55 5 63 15 52 64 -5 21
-5 44 -1 50 14 16 -6 55 -28 55 -32 0 -68 -41 -86 -98 -16 -49 -31 -74 -112
-185 -27 -37 -31 -51 -26 -80 10 -65 62 -60 232 22 55 26 97 52 93 56 -4 5 -2
5 5 2 6 -4 42 -1 79 7 38 8 70 13 72 11 10 -10 -90 -55 -124 -55 -42 -1 -108
-39 -128 -75 -16 -29 -18 -30 -175 -81 -172 -56 -202 -78 -226 -162 -27 -97
-46 -131 -103 -179 -60 -52 -82 -92 -82 -153 0 -44 -15 -55 -90 -67 -19 -3
-53 -20 -75 -38 -36 -28 -75 -50 -75 -41 0 8 36 75 60 111 51 77 91 157 86
171 -3 8 -1 14 4 14 6 0 10 12 10 26 0 14 5 34 10 45 10 17 7 19 -22 19 -23 0
-55 -15 -103 -47 -38 -26 -71 -51 -73 -55 -2 -5 -8 -8 -13 -8 -6 0 -7 5 -4 10
13 21 -8 9 -39 -23 -18 -18 -40 -36 -50 -40 -12 -5 -15 -13 -11 -26 3 -11 1
-22 -5 -26 -6 -4 -10 10 -10 38 0 25 -3 59 -7 77 -5 28 -3 32 9 27 12 -4 17 2
20 22 l4 28 -48 -20 c-27 -11 -69 -38 -94 -60 -26 -23 -57 -41 -72 -42 -15 -1
-50 -7 -79 -14 -44 -11 -62 -10 -116 3 -35 9 -70 16 -78 16 -18 0 -66 44 -73
68 -14 42 23 105 107 187 45 45 87 87 93 95 36 47 160 143 174 135 4 -3 33 0
63 6 50 10 59 9 90 -10 19 -11 41 -21 50 -21 8 0 18 -7 21 -16 4 -9 9 -14 13
-11 3 4 12 2 20 -4 10 -9 18 -8 33 6 11 10 20 24 20 30 0 7 9 23 20 36 l19 24
1 -23 c0 -22 4 -20 51 22 28 25 61 47 73 47 20 1 20 2 1 5 -47 10 -95 28 -95
36 0 12 14 10 46 -7 16 -8 36 -15 44 -15 8 0 23 -7 32 -14 16 -12 15 -16 -22
-56 -22 -24 -54 -72 -70 -107 -28 -59 -29 -66 -18 -108 11 -42 10 -46 -12 -70
-18 -19 -21 -28 -12 -37 19 -19 166 22 192 53 3 3 19 13 36 22 49 25 57 40 36
68 -40 52 -10 117 41 90 22 -12 30 -11 68 10 52 29 86 65 93 100 3 15 31 66
63 114 32 48 69 104 82 124 14 20 50 61 81 92 49 49 64 59 121 72 79 19 109
20 130 4z m-1452 -174 c-5 -14 -7 -28 -4 -31 3 -3 5 -1 5 5 0 20 84 77 117 80
18 1 33 -2 33 -7 0 -6 -19 -27 -42 -48 -66 -59 -194 -217 -248 -306 -27 -44
-84 -119 -126 -166 -42 -47 -85 -103 -95 -125 -17 -38 -27 -144 -11 -118 4 6
8 -6 8 -28 2 -44 -3 -47 -34 -19 -12 11 -35 20 -53 20 -41 0 -69 25 -69 61 0
40 -17 79 -34 79 -9 0 -51 -18 -95 -41 -57 -29 -98 -42 -139 -46 -66 -6 -88 2
-189 73 -38 26 -65 39 -69 32 -4 -7 -9 -6 -14 2 -4 6 8 40 27 76 36 67 56 85
158 137 28 14 69 43 91 65 23 22 85 62 138 88 94 47 96 48 141 36 25 -7 57
-12 71 -12 14 0 22 -4 19 -10 -3 -5 0 -8 7 -5 8 3 24 -13 40 -39 21 -35 31
-43 47 -39 31 8 104 90 214 242 26 36 60 78 75 94 l27 28 7 -26 c4 -15 2 -38
-3 -52z m2084 56 c12 -6 33 -24 47 -40 21 -25 36 -31 95 -40 38 -5 96 -18 130
-28 33 -10 83 -22 110 -25 80 -11 81 -22 3 -18 -44 3 -73 0 -77 -7 -7 -10
-263 0 -353 15 -35 6 -40 3 -75 -36 -21 -23 -58 -56 -83 -73 -59 -41 -84 -68
-136 -149 -24 -37 -98 -127 -165 -200 -67 -73 -145 -165 -175 -205 -58 -78
-81 -96 -122 -92 -17 2 -46 -10 -76 -29 -72 -46 -78 -39 -19 21 28 28 62 72
75 97 13 25 40 63 61 84 21 20 35 41 32 46 -7 12 5 40 17 40 6 0 5 -7 -2 -15
-25 -30 -3 -24 33 9 20 18 39 31 42 28 3 -3 5 2 5 11 0 8 3 17 8 19 4 2 24 25
45 53 48 63 116 142 192 225 33 35 74 80 92 99 17 19 29 39 26 45 -4 5 -20 -6
-37 -26 -38 -43 -136 -131 -116 -103 8 11 36 41 63 66 72 69 58 94 -53 99 -30
1 -38 4 -25 8 37 12 75 44 81 68 8 33 87 45 167 26 56 -14 58 -14 90 11 35 28
66 33 100 16z m-140 -712 c8 -34 13 -38 33 -34 13 2 24 1 24 -3 0 -16 -61
-156 -78 -180 -27 -38 -62 -125 -62 -156 0 -47 54 -69 103 -42 12 7 28 13 36
14 8 2 17 8 21 14 4 6 11 10 16 9 24 -4 54 2 67 15 8 8 32 18 53 21 21 4 113
25 203 46 90 22 168 38 174 36 18 -6 -127 -74 -173 -81 -28 -5 -62 -20 -95
-45 -27 -20 -106 -65 -175 -99 -143 -70 -200 -112 -200 -147 0 -13 22 -52 48
-87 27 -35 67 -90 89 -124 49 -71 94 -113 169 -155 30 -17 57 -35 60 -40 8
-13 -83 -11 -109 2 -12 7 -42 29 -67 49 -54 44 -85 62 -169 95 -36 14 -88 41
-117 61 -92 63 -169 51 -213 -33 -10 -21 -39 -66 -64 -100 -26 -34 -58 -86
-73 -115 -44 -88 -113 -188 -169 -247 -29 -31 -73 -86 -97 -122 -40 -60 -45
-64 -65 -54 -13 7 -22 14 -20 16 1 2 -9 -6 -21 -19 -23 -22 -62 -42 -83 -42
-5 0 11 25 35 55 25 30 57 76 72 102 16 26 40 64 56 83 15 19 43 77 63 129 20
51 50 117 66 146 16 29 27 59 24 67 -4 10 4 24 19 36 57 45 12 78 -57 42 -23
-12 -51 -30 -62 -40 -11 -9 -44 -34 -74 -55 -30 -21 -65 -50 -79 -66 -13 -16
-28 -29 -33 -29 -19 0 -47 33 -41 49 3 8 -11 -1 -31 -22 -37 -37 -46 -41 -79
-38 -9 1 -18 -6 -21 -16 -2 -10 -2 2 0 27 5 58 12 82 22 75 5 -2 13 7 20 21 6
14 7 23 2 20 -5 -4 -5 12 1 36 18 82 10 86 -60 33 -34 -26 -79 -67 -100 -92
-20 -25 -61 -70 -91 -101 -40 -42 -52 -49 -46 -31 4 13 30 47 59 75 28 28 77
78 108 111 65 68 144 116 157 95 5 -9 11 -5 19 13 13 29 9 45 -12 45 -7 0 -47
-17 -87 -37 -60 -30 -95 -58 -185 -150 -61 -62 -117 -113 -123 -113 -7 0 -9 5
-6 10 8 13 -35 29 -68 26 -15 -2 -39 -11 -54 -21 -15 -10 -52 -21 -82 -24 -30
-3 -56 -11 -58 -17 -2 -7 8 -9 27 -6 23 3 30 0 30 -12 0 -9 7 -16 17 -16 14 0
14 -2 -2 -20 -23 -26 -38 -26 -30 1 6 19 4 20 -29 14 -34 -7 -36 -6 -36 18 0
34 103 204 176 291 19 21 40 60 49 85 9 29 32 64 60 91 24 23 49 57 56 74 21
53 29 59 56 41 13 -9 34 -15 46 -15 52 5 57 1 57 -37 0 -21 -7 -47 -15 -57 -8
-10 -22 -41 -31 -68 -13 -41 -14 -54 -4 -79 7 -16 15 -28 19 -27 93 45 162 87
187 113 16 18 63 50 103 71 65 33 114 75 168 142 l18 23 27 -35 c24 -30 27
-40 22 -81 -6 -37 -14 -51 -46 -76 -39 -31 -68 -75 -68 -103 0 -29 31 -48 69
-42 25 4 31 2 21 -4 -8 -5 -23 -10 -32 -10 -10 0 -18 -4 -18 -10 0 -15 22 -12
60 10 19 11 76 39 126 64 88 42 91 45 106 92 18 56 16 64 -18 64 l-25 0 21 28
c14 18 21 46 23 80 2 57 8 63 31 30 11 -15 19 -18 28 -11 7 6 29 14 48 18 46
10 59 21 52 47 -3 11 4 39 15 62 12 23 25 55 30 71 7 24 14 30 36 30 15 -1 27
2 27 5 0 3 29 36 65 73 69 70 88 103 100 175 6 37 10 43 28 40 16 -2 24 -14
30 -41z m-2591 -307 c13 0 38 -10 57 -23 71 -46 116 -65 133 -56 22 12 24 12
42 -7 9 -9 16 -32 16 -54 0 -32 -8 -46 -54 -93 -44 -44 -59 -68 -75 -121 -19
-61 -151 -278 -151 -248 0 7 12 31 26 53 14 23 23 43 21 45 -2 3 -18 -17 -35
-43 -45 -70 -83 -102 -138 -118 -27 -8 -68 -20 -91 -27 -35 -10 -51 -10 -85 1
-84 25 -88 25 -114 0 -13 -13 -22 -29 -19 -37 2 -7 1 -11 -3 -8 -9 5 -30 -56
-62 -180 -35 -140 -86 -244 -110 -229 -15 9 -12 53 9 130 14 51 20 120 24 254
6 179 7 184 31 210 19 19 22 30 15 43 -12 21 9 37 23 17 7 -10 8 -1 5 27 -3
23 -15 55 -26 71 -12 16 -28 47 -36 69 -14 37 -14 38 -15 9 0 -45 -16 -18 -29
51 -13 68 -8 94 19 94 9 0 47 16 83 35 36 19 72 35 80 35 7 0 21 -18 31 -40
16 -36 20 -39 44 -34 32 7 62 39 62 64 0 11 19 29 48 46 26 15 71 47 100 71
l53 43 49 -25 c27 -14 60 -25 72 -25z m453 -210 c4 -6 10 -8 15 -5 4 3 10 -2
14 -10 3 -8 1 -15 -4 -15 -6 0 -10 -4 -10 -9 0 -6 12 -6 28 -2 60 17 67 -5 17
-60 -19 -21 -48 -64 -64 -96 -17 -32 -39 -71 -50 -88 -25 -36 -27 -55 -6 -55
10 0 15 -7 13 -17 -11 -67 243 77 372 211 25 26 53 46 65 46 12 0 32 11 44 24
18 19 33 24 80 25 51 1 59 -2 64 -19 3 -11 12 -20 21 -20 24 0 5 -32 -64 -105
-31 -33 -66 -77 -78 -98 -38 -65 -186 -237 -193 -225 -4 7 -3 20 2 29 12 23
11 29 -1 29 -6 0 -15 -10 -19 -22 -5 -13 -29 -45 -53 -71 -38 -43 -46 -48 -71
-42 -16 4 -24 10 -19 14 6 3 24 24 41 45 23 29 29 45 25 63 -4 14 -3 28 2 32
10 7 74 99 74 106 0 10 -83 -26 -123 -53 -40 -28 -82 -49 -286 -143 -82 -38
-103 -44 -158 -43 -62 1 -100 17 -77 32 6 4 14 19 18 34 4 17 27 43 61 68 59
44 78 70 69 94 -3 9 -3 24 1 34 5 9 10 25 12 36 2 10 18 35 36 57 19 21 46 64
62 96 48 93 119 156 140 123z"/>
<path d="M1987 3207 c-57 -59 -110 -134 -127 -181 -10 -24 -28 -61 -41 -82
-23 -38 -35 -124 -17 -135 5 -3 31 -2 57 2 55 9 139 59 193 116 37 41 72 109
59 117 -4 3 -25 2 -48 -1 -30 -4 -40 -9 -36 -19 3 -8 12 -14 20 -14 8 0 11 -5
8 -10 -4 -6 -12 -7 -18 -3 -7 4 -20 6 -29 5 -13 -2 -16 1 -12 13 5 13 2 15
-20 9 -43 -10 -30 4 34 36 64 32 91 68 88 117 -4 68 -61 83 -111 30z"/>
<path d="M1250 3293 c-14 -9 -29 -23 -33 -30 -4 -7 -30 -24 -57 -38 -32 -16
-56 -37 -66 -58 -9 -17 -34 -51 -55 -74 -30 -32 -39 -51 -39 -77 0 -19 -6 -36
-12 -39 -21 -8 45 -29 72 -24 87 18 215 75 251 113 l23 25 -22 6 c-12 3 -22
12 -22 19 0 17 -24 18 -53 2 -20 -10 -21 -10 -8 5 7 9 31 22 52 28 77 24 123
111 76 144 -28 20 -77 19 -107 -2z"/>
<path d="M1105 2516 c-40 -17 -157 -115 -150 -125 2 -5 -3 -19 -14 -32 -17
-22 -41 -81 -41 -100 0 -5 15 -25 34 -45 26 -28 40 -35 58 -31 40 9 62 15 83
22 16 5 14 2 -5 -12 -80 -57 -103 -99 -80 -144 7 -13 7 -19 0 -19 -16 0 -12
-17 6 -24 24 -9 120 38 135 66 7 12 12 37 11 55 -2 17 9 57 23 89 18 40 24 67
19 84 -11 41 -7 132 7 140 7 5 9 18 5 36 -14 55 -35 65 -91 40z"/>
</g>
</svg>
